<svg xmlns="http://www.w3.org/2000/svg" viewBox="0 0 100 100" fill="none">
  <rect width="100" height="100" rx="24" fill="#F8F9FA" />
  <rect width="100" height="100" rx="24" fill="rgba(112, 161, 215, 0.06)" stroke="rgba(112, 161, 215, 0.25)" stroke-width="2" />
  <g transform="translate(-16, -10) scale(0.64)">
    <path
      d="M 38 96 
         C 30 118, 54 136, 76 136 
         C 42 136, 26 92, 38 60 
         C 48 34, 76 28, 98 36 
         C 112 42, 114 56, 100 74 
         C 82 96, 64 114, 76 130 
         C 86 142, 106 114, 122 76 
         L 132 50 
         C 136 40, 144 34, 150 40 
         L 168 84 
         L 184 46 
         C 188 38, 196 36, 200 44 
         L 200 126"
      stroke="#70A1D7"
      stroke-width="16"
      stroke-linecap="round"
      stroke-linejoin="round"
    />
  </g>
</svg>
