<svg xmlns="http://www.w3.org/2000/svg" viewBox="0 0 100 100" fill="none">
  <rect width="100" height="100" rx="24" fill="#F8F9FA" />
  <rect width="100" height="100" rx="24" fill="rgba(112, 161, 215, 0.06)" stroke="rgba(112, 161, 215, 0.25)" stroke-width="2" />
  <g transform="translate(18, 20) scale(0.30)">
    <path
      d="M 43.3 0.0 C 46.1 -0.1, 55.0 -0.5, 59.8 0.0 C 64.5 0.5, 68.1 1.6, 71.7 2.8 C 75.3 4.1, 77.7 4.8, 81.4 7.4 C 85.1 9.9, 90.7 14.3, 93.9 18.1 C 97.1 21.9, 99.3 26.8, 100.7 30.0 C 102.2 33.2, 102.2 35.6, 102.4 37.4 C 102.6 39.2, 102.4 39.3, 101.9 40.8 C 101.3 42.2, 100.4 44.5, 99.0 45.8 C 97.6 47.2, 94.9 48.2, 93.3 48.7 C 91.7 49.2, 91.0 49.2, 89.3 48.7 C 87.7 48.2, 85.1 47.1, 83.7 45.8 C 82.2 44.6, 81.7 43.3, 80.8 41.3 C 80.0 39.3, 80.1 36.4, 78.5 34.0 C 77.0 31.5, 73.9 28.4, 71.7 26.6 C 69.5 24.8, 68.0 24.2, 65.4 23.2 C 62.9 22.3, 59.8 21.3, 56.3 20.9 C 52.9 20.6, 48.2 20.6, 45.0 20.9 C 41.7 21.3, 39.6 22.1, 37.0 23.2 C 34.3 24.3, 30.9 26.4, 29.0 27.7 C 27.1 29.1, 26.7 29.5, 25.6 31.1 C 24.5 32.7, 23.0 35.5, 22.2 37.4 C 21.4 39.2, 21.1 40.7, 21.1 42.5 C 21.1 44.2, 21.7 46.6, 22.2 48.1 C 22.7 49.6, 22.4 49.8, 23.9 51.5 C 25.4 53.2, 28.3 56.5, 31.3 58.3 C 34.3 60.1, 37.0 61.1, 42.1 62.3 C 47.2 63.4, 57.0 64.2, 62.0 65.1 C 67.1 66.0, 69.2 66.9, 72.3 67.9 C 75.3 69.0, 77.5 69.7, 80.2 71.3 C 83.0 72.9, 87.4 75.9, 88.8 77.5 C 90.2 79.2, 90.4 77.2, 88.8 80.9 C 87.2 84.7, 81.8 98.3, 79.1 100.2 C 76.4 102.1, 75.1 94.2, 72.8 92.3 C 70.6 90.3, 72.4 90.1, 65.4 88.3 C 58.5 86.5, 38.8 83.4, 31.3 81.5 C 23.8 79.6, 24.4 79.4, 20.5 77.0 C 16.6 74.5, 11.0 70.1, 8.0 66.8 C 4.9 63.5, 3.6 60.1, 2.3 57.2 C 0.9 54.2, 0.4 52.7, 0.0 49.2 C -0.4 45.8, -0.6 40.2, 0.0 36.2 C 0.6 32.3, 2.4 28.0, 3.4 25.5 C 4.5 22.9, 4.5 23.2, 6.3 20.9 C 8.1 18.7, 11.4 14.3, 14.2 11.9 C 17.1 9.4, 20.3 7.8, 23.3 6.2 C 26.4 4.6, 29.2 3.2, 32.4 2.3 C 35.7 1.3, 40.9 0.9, 42.7 0.6 C 44.5 0.2, 40.4 0.1, 43.3 0.0 Z"
      fill="#70A1D7"
    />
    <path
      d="M 188.9 6.8 C 190.4 6.8, 194.9 7.0, 196.9 7.4 C 198.9 7.7, 199.3 7.8, 200.9 9.1 C 202.5 10.3, 205.2 12.5, 206.6 14.7 C 208.0 16.9, 209.0 2.3, 209.4 22.1 C 209.9 41.9, 209.8 114.2, 209.4 133.6 C 209.1 153.0, 208.3 137.3, 207.2 138.7 C 206.0 140.1, 204.4 141.4, 202.6 142.1 C 200.8 142.7, 198.0 142.8, 196.3 142.6 C 194.6 142.5, 193.8 142.3, 192.4 140.9 C 190.9 139.6, 188.7 151.3, 187.8 134.7 C 187.0 118.1, 191.3 49.5, 187.2 41.3 C 183.2 33.1, 168.6 77.2, 163.3 85.5 C 158.1 93.8, 158.8 90.2, 155.9 91.1 C 153.1 92.1, 148.5 91.5, 146.3 91.1 C 144.0 90.8, 143.6 89.9, 142.3 88.9 C 140.9 87.8, 140.2 87.9, 138.3 84.9 C 136.4 81.9, 132.7 73.8, 130.9 70.8 C 129.1 67.7, 133.0 57.7, 127.5 66.8 C 122.0 75.8, 104.6 113.3, 97.9 125.1 C 91.2 136.9, 91.5 134.0, 87.1 137.5 C 82.6 141.1, 75.8 144.6, 71.1 146.6 C 66.5 148.6, 63.8 149.0, 59.2 149.4 C 54.5 149.9, 47.7 149.8, 43.3 149.4 C 38.8 149.1, 35.6 148.1, 32.4 147.2 C 29.3 146.2, 27.4 145.4, 24.5 143.8 C 21.5 142.2, 17.5 139.8, 14.8 137.5 C 12.0 135.3, 10.0 132.8, 8.0 130.2 C 6.0 127.5, 4.2 124.4, 2.8 121.7 C 1.5 119.0, 0.5 116.4, 0.0 113.8 C -0.5 111.1, -0.3 107.6, 0.0 105.8 C 0.3 104.1, 0.8 104.1, 1.7 103.0 C 2.7 102.0, 4.1 100.4, 5.7 99.6 C 7.3 98.9, 9.7 98.5, 11.4 98.5 C 13.1 98.5, 14.6 99.0, 15.9 99.6 C 17.3 100.3, 17.7 99.5, 19.3 102.5 C 21.0 105.4, 23.6 113.8, 25.6 117.2 C 27.6 120.6, 29.3 121.3, 31.3 122.8 C 33.3 124.3, 35.2 125.3, 37.6 126.2 C 39.9 127.2, 42.4 128.1, 45.5 128.5 C 48.7 128.9, 52.7 129.1, 56.3 128.5 C 59.9 127.9, 64.4 126.3, 67.2 125.1 C 69.9 123.9, 70.7 123.3, 72.8 121.1 C 75.0 119.0, 73.3 125.0, 80.2 112.1 C 87.2 99.2, 108.1 55.6, 114.4 43.6 C 120.7 31.6, 115.7 41.3, 117.8 40.2 C 119.9 39.1, 123.9 37.0, 126.9 36.8 C 129.9 36.6, 133.8 38.1, 136.0 39.1 C 138.2 40.0, 137.4 38.8, 140.0 42.5 C 142.6 46.1, 145.3 65.8, 151.4 61.1 C 157.5 56.4, 171.3 22.8, 176.4 14.2 C 181.5 5.5, 180.1 10.2, 182.1 9.1 C 184.1 7.9, 187.2 7.7, 188.4 7.4 C 189.5 7.0, 187.5 6.8, 188.9 6.8 Z"
      fill="#70A1D7"
    />
  </g>
</svg>
