<svg xmlns="http://www.w3.org/2000/svg" viewBox="0 0 369 265" fill="none">
  <path d="M 76.0 0.0 C 81.0 -0.2, 96.7 -0.8, 105.0 0.0 C 113.3 0.8, 119.7 2.8, 126.0 5.0 C 132.3 7.2, 136.5 8.5, 143.0 13.0 C 149.5 17.5, 159.3 25.3, 165.0 32.0 C 170.7 38.7, 174.5 47.3, 177.0 53.0 C 179.5 58.7, 179.7 62.8, 180.0 66.0 C 180.3 69.2, 180.0 69.5, 179.0 72.0 C 178.0 74.5, 176.5 78.7, 174.0 81.0 C 171.5 83.3, 166.8 85.2, 164.0 86.0 C 161.2 86.8, 159.8 86.8, 157.0 86.0 C 154.2 85.2, 149.5 83.2, 147.0 81.0 C 144.5 78.8, 143.5 76.5, 142.0 73.0 C 140.5 69.5, 140.7 64.3, 138.0 60.0 C 135.3 55.7, 129.8 50.2, 126.0 47.0 C 122.2 43.8, 119.5 42.7, 115.0 41.0 C 110.5 39.3, 105.0 37.7, 99.0 37.0 C 93.0 36.3, 84.7 36.3, 79.0 37.0 C 73.3 37.7, 69.7 39.0, 65.0 41.0 C 60.3 43.0, 54.3 46.7, 51.0 49.0 C 47.7 51.3, 47.0 52.2, 45.0 55.0 C 43.0 57.8, 40.3 62.7, 39.0 66.0 C 37.7 69.3, 37.0 71.8, 37.0 75.0 C 37.0 78.2, 38.2 82.3, 39.0 85.0 C 39.8 87.7, 39.3 88.0, 42.0 91.0 C 44.7 94.0, 49.7 99.8, 55.0 103.0 C 60.3 106.2, 65.0 108.0, 74.0 110.0 C 83.0 112.0, 100.2 113.3, 109.0 115.0 C 117.8 116.7, 121.7 118.2, 127.0 120.0 C 132.3 121.8, 136.2 123.2, 141.0 126.0 C 145.8 128.8, 153.5 134.2, 156.0 137.0 C 158.5 139.8, 158.8 136.3, 156.0 143.0 C 153.2 149.7, 143.7 173.7, 139.0 177.0 C 134.3 180.3, 132.0 166.5, 128.0 163.0 C 124.0 159.5, 127.2 159.2, 115.0 156.0 C 102.8 152.8, 68.2 147.3, 55.0 144.0 C 41.8 140.7, 42.8 140.3, 36.0 136.0 C 29.2 131.7, 19.3 123.8, 14.0 118.0 C 8.7 112.2, 6.3 106.2, 4.0 101.0 C 1.7 95.8, 0.7 93.2, 0.0 87.0 C -0.7 80.8, -1.0 71.0, 0.0 64.0 C 1.0 57.0, 4.2 49.5, 6.0 45.0 C 7.8 40.5, 7.8 41.0, 11.0 37.0 C 14.2 33.0, 20.0 25.3, 25.0 21.0 C 30.0 16.7, 35.7 13.8, 41.0 11.0 C 46.3 8.2, 51.3 5.7, 57.0 4.0 C 62.7 2.3, 71.8 1.7, 75.0 1.0 C 78.2 0.3, 71.0 0.2, 76.0 0.0 Z" fill="#70A1D7" />
  <path d="M 332.0 12.0 C 334.5 12.0, 342.5 12.3, 346.0 13.0 C 349.5 13.7, 350.2 13.8, 353.0 16.0 C 355.8 18.2, 360.5 22.2, 363.0 26.0 C 365.5 29.8, 367.2 4.0, 368.0 39.0 C 368.8 74.0, 368.7 201.7, 368.0 236.0 C 367.3 270.3, 366.0 242.5, 364.0 245.0 C 362.0 247.5, 359.2 249.8, 356.0 251.0 C 352.8 252.2, 348.0 252.3, 345.0 252.0 C 342.0 251.7, 340.5 251.3, 338.0 249.0 C 335.5 246.7, 331.5 267.3, 330.0 238.0 C 328.5 208.7, 336.2 87.5, 329.0 73.0 C 321.8 58.5, 296.2 136.3, 287.0 151.0 C 277.8 165.7, 279.0 159.3, 274.0 161.0 C 269.0 162.7, 261.0 161.7, 257.0 161.0 C 253.0 160.3, 252.3 158.8, 250.0 157.0 C 247.7 155.2, 246.3 155.3, 243.0 150.0 C 239.7 144.7, 233.2 130.3, 230.0 125.0 C 226.8 119.7, 233.7 102.0, 224.0 118.0 C 214.3 134.0, 183.8 200.2, 172.0 221.0 C 160.2 241.8, 160.8 236.7, 153.0 243.0 C 145.2 249.3, 133.2 255.5, 125.0 259.0 C 116.8 262.5, 112.2 263.2, 104.0 264.0 C 95.8 264.8, 83.8 264.7, 76.0 264.0 C 68.2 263.3, 62.5 261.7, 57.0 260.0 C 51.5 258.3, 48.2 256.8, 43.0 254.0 C 37.8 251.2, 30.8 247.0, 26.0 243.0 C 21.2 239.0, 17.5 234.7, 14.0 230.0 C 10.5 225.3, 7.3 219.8, 5.0 215.0 C 2.7 210.2, 0.8 205.7, 0.0 201.0 C -0.8 196.3, -0.5 190.2, 0.0 187.0 C 0.5 183.8, 1.3 183.8, 3.0 182.0 C 4.7 180.2, 7.2 177.3, 10.0 176.0 C 12.8 174.7, 17.0 174.0, 20.0 174.0 C 23.0 174.0, 25.7 174.8, 28.0 176.0 C 30.3 177.2, 31.2 175.8, 34.0 181.0 C 36.8 186.2, 41.5 201.0, 45.0 207.0 C 48.5 213.0, 51.5 214.3, 55.0 217.0 C 58.5 219.7, 61.8 221.3, 66.0 223.0 C 70.2 224.7, 74.5 226.3, 80.0 227.0 C 85.5 227.7, 92.7 228.0, 99.0 227.0 C 105.3 226.0, 113.2 223.2, 118.0 221.0 C 122.8 218.8, 124.2 217.8, 128.0 214.0 C 131.8 210.2, 128.8 220.8, 141.0 198.0 C 153.2 175.2, 190.0 98.2, 201.0 77.0 C 212.0 55.8, 203.3 73.0, 207.0 71.0 C 210.7 69.0, 217.7 65.3, 223.0 65.0 C 228.3 64.7, 235.2 67.3, 239.0 69.0 C 242.8 70.7, 241.5 68.5, 246.0 75.0 C 250.5 81.5, 255.3 116.3, 266.0 108.0 C 276.7 99.7, 301.0 40.3, 310.0 25.0 C 319.0 9.7, 316.5 18.0, 320.0 16.0 C 323.5 14.0, 329.0 13.7, 331.0 13.0 C 333.0 12.3, 329.5 12.0, 332.0 12.0 Z" fill="#70A1D7" />
</svg>